<svg width="16" height="27" viewBox="0 0 16 27" fill="none" xmlns="http://www.w3.org/2000/svg">
<g clip-path="url(#clip0_172_39)">
<path d="M11.375 25.375L0.641666 14.6417C0.408333 14.4083 0.243444 14.1555 0.146999 13.8833C0.0505549 13.6111 0.00155556 13.3194 0 13.0083C0 12.6972 0.0489994 12.4055 0.146999 12.1333C0.244999 11.8611 0.409888 11.6083 0.641666 11.375L11.375 0.641665C11.8028 0.213888 12.3472 0 13.0083 0C13.6694 0 14.2139 0.213888 14.6417 0.641665C15.0694 1.06944 15.2833 1.61389 15.2833 2.275C15.2833 2.93611 15.0694 3.48055 14.6417 3.90833L5.54167 13.0083L14.6417 22.1083C15.0694 22.5361 15.2833 23.0805 15.2833 23.7417C15.2833 24.4028 15.0694 24.9472 14.6417 25.375C14.2139 25.8028 13.6694 26.0167 13.0083 26.0167C12.3472 26.0167 11.8028 25.8028 11.375 25.375Z" fill="white"/>
</g>
<defs>
<clipPath id="clip0_172_39">
<rect width="15.2833" height="26.0167" fill="white"/>
</clipPath>
</defs>
</svg>
