<svg width="56" height="56" viewBox="0 0 56 56" fill="none" xmlns="http://www.w3.org/2000/svg">
<path d="M31.0335 40.3667L20.3001 29.6334C20.0668 29.4 19.9019 29.1472 19.8054 28.875C19.709 28.6028 19.66 28.3111 19.6584 28C19.6584 27.6889 19.7074 27.3972 19.8054 27.125C19.9034 26.8528 20.0683 26.6 20.3001 26.3667L31.0335 15.6334C31.4612 15.2056 32.0057 14.9917 32.6668 14.9917C33.3279 14.9917 33.8723 15.2056 34.3001 15.6334C34.7279 16.0611 34.9418 16.6056 34.9418 17.2667C34.9418 17.9278 34.7279 18.4723 34.3001 18.9L25.2001 28L34.3001 37.1C34.7279 37.5278 34.9418 38.0722 34.9418 38.7334C34.9418 39.3945 34.7279 39.9389 34.3001 40.3667C33.8723 40.7945 33.3279 41.0084 32.6668 41.0084C32.0057 41.0084 31.4612 40.7945 31.0335 40.3667Z" fill="#FFFFFF"/>
</svg>
